<svg xmlns="http://www.w3.org/2000/svg" viewBox="0 0 500 500"><g id="freepik--background-complete--inject-306"><path d="M74.13,192.07v29.47L55,244a29.47,29.47,0,0,1,19.12-51.88Z" style="fill:#ebebeb"></path><path d="M109.6,224.54A29.47,29.47,0,0,1,61,247l19.12-22.41V195.07a29.45,29.45,0,0,1,29.47,29.47Z" style="fill:#ebebeb"></path><path d="M109.6,224.54A29.47,29.47,0,0,1,61,247l19.12-22.41V195.07a29.45,29.45,0,0,1,29.47,29.47Z" style="fill:#dbdbdb"></path><rect x="60.51" y="169.16" width="1" height="38.01" style="fill:#c7c7c7"></rect><path d="M61,169.66a3.17,3.17,0,1,1,3.17-3.16A3.17,3.17,0,0,1,61,169.66Zm0-5.33a2.17,2.17,0,1,0,2.17,2.17A2.17,2.17,0,0,0,61,164.33Z" style="fill:#c7c7c7"></path><rect x="69.09" y="163.83" width="29.53" height="1.33" style="fill:#c7c7c7"></rect><rect x="69.09" y="166.5" width="16.71" height="1.33" style="fill:#c7c7c7"></rect><path d="M412.94,79.61A31.32,31.32,0,1,1,382,43.7V75Z" style="fill:#dbdbdb"></path><path d="M419.66,68.64a31.59,31.59,0,0,1-.34,4.59l-31-4.59V37.32a31.31,31.31,0,0,1,31.32,31.32Z" style="fill:#ebebeb"></path><rect x="385.35" y="86.07" width="33.31" height="1" style="fill:#c7c7c7"></rect><path d="M421,89.41a2.84,2.84,0,1,1,2.84-2.84A2.84,2.84,0,0,1,421,89.41Zm0-4.67a1.84,1.84,0,1,0,1.84,1.83A1.83,1.83,0,0,0,421,84.74Z" style="fill:#c7c7c7"></path><rect x="429.46" y="84.82" width="25.87" height="1.17" style="fill:#c7c7c7"></rect><rect x="429.46" y="87.16" width="14.64" height="1.17" style="fill:#c7c7c7"></rect><polygon points="306.27 371.55 457.44 371.55 460.58 309.53 303.13 309.53 306.27 371.55" style="fill:#ebebeb"></polygon><path d="M450.27,337.92H387.08l-1.19-21.53h65.77Zm-62.47-.76h61.76l1.28-20H386.7Z" style="fill:#dbdbdb"></path><path d="M449.11,362.69H389.55l-1-19.43h61.74Zm-58.83-.76h58.11L449.51,344H389.39Z" style="fill:#dbdbdb"></path><path d="M424.76,329.49H414.14l-.67-5.19h12Zm-9.95-.76h9.28l.47-3.67H414.34Z" style="fill:#dbdbdb"></path><path d="M424.76,355.57H414.14l-.67-5.19h12Zm-9.95-.76h9.28l.47-3.67H414.34Z" style="fill:#dbdbdb"></path><path d="M375.94,337.92h-63.2l-1.19-21.53h65.77Zm-62.48-.76h61.76l1.29-20H312.36Z" style="fill:#dbdbdb"></path><path d="M374.77,362.69H315.21l-1-19.43H376Zm-58.83-.76h58.11L375.17,344H315.05Z" style="fill:#dbdbdb"></path><path d="M350.42,329.49H339.8l-.67-5.19h12Zm-9.95-.76h9.28l.48-3.67H340Z" style="fill:#dbdbdb"></path><path d="M350.42,355.57H339.8l-.67-5.19h12Zm-9.95-.76h9.28l.48-3.67H340Z" style="fill:#dbdbdb"></path><polygon points="319.83 371.55 318.88 378.31 316.97 391.89 313.24 391.89 313.24 371.55 319.83 371.55" style="fill:#ebebeb"></polygon><polygon points="319.83 371.55 318.88 378.31 313.24 378.31 313.24 371.55 319.83 371.55" style="fill:#dbdbdb"></polygon><polygon points="443.88 371.55 444.83 378.31 446.74 391.89 450.47 391.89 450.47 371.55 443.88 371.55" style="fill:#ebebeb"></polygon><polygon points="443.88 371.55 444.83 378.31 450.47 378.31 450.47 371.55 443.88 371.55" style="fill:#dbdbdb"></polygon><rect x="405.71" y="280.87" width="45.73" height="11.52" transform="translate(715.21 -141.95) rotate(90)" style="fill:#c7c7c7"></rect><rect x="426.07" y="258.08" width="5.03" height="11.52" transform="translate(692.41 -164.75) rotate(90)" style="fill:#dbdbdb"></rect><rect x="427.65" y="267.96" width="1.86" height="11.52" transform="translate(702.3 -154.86) rotate(90)" style="fill:#dbdbdb"></rect><rect x="426.07" y="295.23" width="5.03" height="11.52" transform="translate(729.57 -127.59) rotate(90)" style="fill:#dbdbdb"></rect><rect x="392.12" y="278.8" width="53.35" height="8.05" transform="translate(701.62 -135.97) rotate(90)" style="fill:#dbdbdb"></rect><rect x="408.57" y="269.01" width="20.52" height="4.83" transform="translate(690.26 -147.41) rotate(90)" style="fill:#ebebeb"></rect><rect x="352.57" y="283.8" width="53.35" height="8.05" transform="translate(851.3 225.93) rotate(135.33)" style="fill:#c7c7c7"></rect><rect x="366.19" y="288.13" width="20.52" height="4.83" transform="translate(848.44 232.55) rotate(135.33)" style="fill:#dbdbdb"></rect><rect x="387.68" y="282.41" width="40.52" height="13.67" transform="translate(697.19 -118.7) rotate(90)" style="fill:#a6a6a6"></rect><rect x="406.06" y="296.49" width="3.78" height="13.67" transform="translate(711.27 -104.62) rotate(90)" style="fill:#c7c7c7"></rect><rect x="407.21" y="291.39" width="1.46" height="13.67" transform="translate(706.17 -109.72) rotate(90)" style="fill:#c7c7c7"></rect><rect x="427.08" y="285.45" width="38.08" height="9.44" transform="translate(536.77 -234.24) rotate(66.77)" style="fill:#a6a6a6"></rect><rect x="449.56" y="297.6" width="3.55" height="9.44" transform="translate(551.09 -231.67) rotate(66.77)" style="fill:#c7c7c7"></rect><rect x="440.63" y="276.8" width="3.55" height="9.44" transform="translate(526.58 -236.06) rotate(66.77)" style="fill:#c7c7c7"></rect><rect x="443.64" y="281.29" width="1.38" height="9.44" transform="translate(531.9 -235.11) rotate(66.77)" style="fill:#c7c7c7"></rect></g><g id="freepik--Shadow--inject-306"><ellipse cx="250" cy="434.55" rx="180.79" ry="24.34" style="fill:#ebebeb"></ellipse></g><g id="freepik--Floor--inject-306"><polygon points="38.37 391.89 91.28 391.64 144.18 391.56 250 391.39 355.82 391.55 408.73 391.64 461.63 391.89 408.73 392.13 355.82 392.22 250 392.39 144.18 392.22 91.28 392.13 38.37 391.89" style="fill:#263238"></polygon></g><g id="freepik--Board--inject-306"><polygon points="196.21 422.03 190.68 422.03 229.45 266.68 243.23 266.68 196.21 422.03" style="fill:#455a64"></polygon><polygon points="243.24 266.69 236.28 289.65 223.72 289.65 229.44 266.7 229.45 266.69 243.24 266.69" style="fill:#263238"></polygon><polygon points="249.88 413.78 244.35 413.78 248.47 266.68 262.25 266.68 249.88 413.78" style="fill:#455a64"></polygon><polygon points="262.25 266.69 260.32 289.65 247.83 289.65 248.47 266.7 248.47 266.69 262.25 266.69" style="fill:#263238"></polygon><polygon points="303.79 422.03 309.32 422.03 278.8 266.68 265.02 266.68 303.79 422.03" style="fill:#455a64"></polygon><polygon points="283.31 289.65 270.75 289.65 265.01 266.69 278.8 266.69 278.81 266.7 283.31 289.65" style="fill:#263238"></polygon><rect x="212" y="355.48" width="80.45" height="3.03" style="fill:#455a64"></rect><rect x="105.83" y="66.96" width="288.33" height="212.75" style="fill:#ebebeb"></rect><rect x="95.28" y="58.48" width="309.45" height="15.77" style="fill:#37474f"></rect><rect x="202.71" y="88.58" width="94.58" height="2.46" style="fill:#c7c7c7"></rect><rect x="218.88" y="93.72" width="62.24" height="2.46" style="fill:#c7c7c7"></rect><rect x="140.91" y="119.95" width="28.89" height="2.46" style="fill:#c7c7c7"></rect><rect x="140.91" y="125.09" width="18.12" height="2.46" style="fill:#c7c7c7"></rect><rect x="316.43" y="253.81" width="26.05" height="2.46" style="fill:#c7c7c7"></rect><rect x="316.43" y="258.95" width="18.12" height="2.46" style="fill:#c7c7c7"></rect><rect x="330.45" y="109.63" width="15.33" height="2.06" style="fill:#c7c7c7"></rect><rect x="330.45" y="113.94" width="24.05" height="2.06" style="fill:#c7c7c7"></rect><rect x="140.91" y="200.14" width="8.77" height="8.77" style="fill:#FFC727"></rect><rect x="140.91" y="216.44" width="8.77" height="8.77" style="fill:#455a64"></rect><rect x="140.91" y="232.73" width="8.77" height="8.77" style="fill:#37474f"></rect><rect x="140.91" y="249.03" width="8.77" height="8.77" style="fill:#c7c7c7"></rect></g><g id="freepik--pie-chart--inject-306"><polygon points="324.88 158.18 319.02 158.18 248.87 181.32 254.73 181.32 324.88 158.18" style="fill:#c7c7c7"></polygon><polygon points="254.73 181.32 248.87 181.32 319.02 204.47 324.88 204.47 254.73 181.32" style="fill:#c7c7c7"></polygon><path d="M254.73,106.43v74.89l70.15-23.14C314.81,126.71,287.32,106.43,254.73,106.43Z" style="fill:#37474f"></path><path d="M256.89,106.46l-2.15,3.69v-.43l1.91-3.27Zm2.23.09-4.38,9.92v.58l4.63-10.48Zm8.11.9-12.49,20.78v.54l12.8-21.27Zm1.76.32-14.25,30.92v.75l14.55-31.62Zm6.94,8.75,3.88-5.82-.35-.13-3.83,5.75L264.2,133.47l-9.46,14.19v.63l9.76-14.63Zm4.4-5.64-25.59,45.44v.81L280.68,111Zm8.83,3.91-34.42,45.78v.69L289.55,115Zm.81.43-35.23,54.66v.87l35.62-55.31Zm7.61,4.79-42.84,52.13v.78L298,120.32Zm.9.66-39.93,59.39.86-.28L298.91,121Zm6.65,5.6-44.6,53.14,1-.33,44-52.45Zm.74.71-35,49,.77-.25,34.61-48.4C306.11,127.23,306,127.1,305.87,127Zm5.84,6.46-37.17,41.35.9-.3L312,133.79Zm.92,1.17-26.77,36.44.67-.22L312.9,135Zm4.68,6.85-25.42,27.61.74-.25,24.87-27A3.37,3.37,0,0,0,317.31,141.46Zm.7,1.17-18.38,23.88.56-.18,18-23.38Zm3.93,7.74-12.71,13,.62-.21,12.21-12.49Zm.67,1.59L315,161.44l.47-.16,7.24-9A1.78,1.78,0,0,0,322.61,152Z" style="fill:#263238"></path><rect x="248.87" y="106.43" width="5.86" height="74.89" style="fill:#263238"></rect><polygon points="254.73 181.32 248.87 181.32 178.73 204.47 184.59 204.47 254.73 181.32" style="fill:#FFC727"></polygon><path d="M254.73,181.32l-70.14,23.15a73.91,73.91,0,0,0,70.13,51.77,72.66,72.66,0,0,0,22.81-3.69c23.24-7.66,39.8-24.48,47.35-48.08Z" style="fill:#FFC727"></path><path d="M184.59,204.47h-5.86a73.9,73.9,0,0,0,70.13,51.77h5.86A73.91,73.91,0,0,1,184.59,204.47Z" style="fill:#FFC727"></path><g style="opacity:0.1"><path d="M184.59,204.47h-5.86a73.9,73.9,0,0,0,70.13,51.77h5.86A73.91,73.91,0,0,1,184.59,204.47Z"></path></g><path d="M184.79,204.4h0l-.12.39s0,0,0,0Z" style="opacity:0.1"></path><path d="M187.79,203.41,187,211a.3.3,0,0,1,0-.08l.76-7.51Zm7.93-2.61L190,217.15a.21.21,0,0,1,0,.06l5.8-16.44Zm2.82-.93-3.41,25.59.08.11,3.41-25.73Zm5-1.66L196.3,227l.07.1,7.32-29Zm2-.65-3.7,36a.8.8,0,0,0,.13.13l3.7-36.13Zm5.93-2L203,234.72l.13.13,8.5-39.31Zm1.45-.48-3.25,45.49.19.14,3.24-45.69Zm-2.17,46.31a1.33,1.33,0,0,0,.19.14l7.88-48.4-.24.09Zm9.75-48.81-.28,54.88.26.14.26-55.1Zm.53,55.31.26.13,6-57.69-.31.11Zm7.67-58-.3.11.89,61.6.34.13Zm1.24,62,.33.12,4.7-64.14-.37.13Zm6.13-64.38-.37.12,2.46,66.71c.13,0,.27.07.41.09Zm2.84,67a3,3,0,0,0,.41.09L243.58,185l-.45.15Zm9.35,1.34-3.61-71.17-.45.15,3.58,71.11.48,0h0l.48,0,2-73.35-.53.17Zm9.44-.11-5.81-73.45-.52.17,5.86,73.76a3.54,3.54,0,0,0,.46,0h.05l.45,0,1.26-73.28-.48-.15Zm2.69-72.53-.48-.15,7.15,72.14.42-.07Zm5.28,1.75,1.81,70.17.42-.08-1.83-70Zm1.29.42-.42-.14,10.78,67.41.22-.07.12,0Zm10,54.16-1.63-19.66-2.72-32.63-.33-.11L275,219.87l1.63,19.67.82,9.83.26,3.13.34-.12-.25-3Zm-3.18-51.91-.35-.11,14.82,60.65.26-.13Zm7.87,2.6,7.47,57.49.26-.13-7.47-57.27Zm1.43.47-.27-.09,13.75,52.68.19-.13Zm17.5,5.78,5.09,39.45.14-.13-5.09-39.28Zm1.69.56-.14,0,10.39,31.33.09-.11Zm-11.49-3.8,7.05,49.16a1.07,1.07,0,0,0,.19-.13l-7.05-49Zm6.7,18.21-4.65-16-.5-1.72-.2-.07.53,1.84,4.65,16,7.4,25.32.13-.11ZM307,198.57l6.28,28.71a1,1,0,0,0,.08-.11L307.1,198.6Zm1.48.49-.11,0,8.77,22.52s.05,0,.05-.08Zm4.56,1.5,5,19.46s0-.05,0-.08l-5-19.36Zm2.52.83-.06,0,6.29,11.25,0,0Zm4.57,1.51,2.7,7.25,0,0-2.69-7.2Zm4.26,1.41h0c.14.18.27.36.39.55v0C324.64,204.66,324.52,204.48,324.39,204.31Z" style="opacity:0.1"></path><path d="M254.73,106.43C214,106.43,181,140,181,181.32a72.15,72.15,0,0,0,3.61,23.15l70.14-23.15Z" style="fill:#455a64"></path><path d="M254.73,165.77v.57L189.67,146l.24-.48Zm-65.48-18.92,65.48,27.58v-.53l-65.25-27.51C189.4,146.54,189.32,146.69,189.25,146.85Zm6-9.75a4.37,4.37,0,0,0-.31.44l59.83,20.55v-.51Zm-.88,1.25,60.4,26.17v-.6l-60.1-26C194.53,138.05,194.42,138.2,194.33,138.35Zm15.12-16.15-.31.25L254.73,140v-.34Zm-1.59,1.3,46.87,22.92V146l-46.56-22.75A3.88,3.88,0,0,0,207.86,123.5ZM202,129c-.12.11-.23.23-.33.34l53.1,19V148Zm-1.43,1.52,54.2,25.72v-.52L200.84,130.2Zm31-20.32-.27.08,23.45,11.4v-.21Zm-3.28,1.18,26.46,16v-.28l-26.19-15.8Zm-9.51,4.54a3.07,3.07,0,0,0-.31.17l36.28,14.76v-.28Zm-2.32,1.37,38.29,20.2v-.34l-38-20ZM244,107.21l-.22,0L254.73,113v-.14Zm-4.91.91,15.6,10.55v-.21l-15.38-10.39A.79.79,0,0,0,239.13,108.12Zm12.13-1.6h-.18l3.65,2.66V109Zm-70,82.17,29.42,7.16.37-.13-29.81-7.26C181.29,188.54,181.29,188.62,181.3,188.69Zm-.12-1.57c0,.08,0,.16,0,.24l39.87,5.07.55-.18Zm1.69,11.17,11.47,3,.27-.09-11.78-3A1,1,0,0,0,182.87,198.29Zm-.2-.87a.85.85,0,0,0,0,.17l17.51,1.72.41-.13ZM181,178.6l46,11.85.47-.15-46.48-12A2.71,2.71,0,0,0,181,178.6Zm.06-1.26a3,3,0,0,0,0,.31l59.11,8.47.7-.23Zm13-7.9-9.85-3-1.67-.51c0,.12-.05.24-.07.36l1.63.5,9.85,3,19.7,6.06L243.5,185l.55-.19-30.29-9.33Zm-11.41-4.06c0,.12-.06.24-.08.36l70.69,16.06.73-.24ZM185.3,156l68.76,25.52.62-.2-69.23-25.73A3.39,3.39,0,0,0,185.3,156Zm.38-1.05a3.66,3.66,0,0,0-.15.43l69.2,20.14V175Z" style="fill:#37474f"></path><path d="M254.73,106.43h-5.86c-40.73,0-73.75,33.53-73.75,74.89a72.15,72.15,0,0,0,3.61,23.15h5.86A72.15,72.15,0,0,1,181,181.32C181,140,214,106.43,254.73,106.43Z" style="fill:#37474f"></path></g><g id="freepik--Arrows--inject-306"><path d="M294.45,136.83a25.8,25.8,0,0,1,3.26-9.66,26.08,26.08,0,0,1,6.67-7.82l.49-.42.54-.36,1.08-.72,1.08-.71c.37-.22.76-.4,1.15-.6.77-.38,1.54-.77,2.32-1.13l2.43-.85,1.22-.4,1.26-.27,2.51-.53a24.22,24.22,0,0,1,2.55-.27l2.54-.2V113c-1.67.3-3.35.53-5,.87l-2.44.66-1.22.32-1.17.46-2.35.91c-.75.36-1.48.77-2.22,1.15-.37.2-.75.37-1.11.58l-1,.7-1,.7-.52.35-.47.41a28.34,28.34,0,0,0-6.64,7.42c-.47.7-.84,1.46-1.26,2.18s-.73,1.52-1.06,2.29A28.54,28.54,0,0,0,294.45,136.83Z" style="fill:#263238"></path><polygon points="320.68 117.4 319.93 116.74 323.18 113.04 319.25 110.06 319.85 109.27 324.64 112.89 320.68 117.4" style="fill:#263238"></polygon><path d="M288.73,226.56a32.68,32.68,0,0,0,1,4.42c.23.73.47,1.44.72,2.15s.55,1.41.86,2.09A34.24,34.24,0,0,0,296,242.9a36.61,36.61,0,0,0,10.21,8.71c1.3.76,2.69,1.36,4.05,2.07l-.05.13-2.14-.82a14.09,14.09,0,0,1-2.11-.9,32.24,32.24,0,0,1-4-2.3,30.26,30.26,0,0,1-11.3-14.28A28,28,0,0,1,288.73,226.56Z" style="fill:#263238"></path><polygon points="305.63 256.24 305.28 255.3 309.89 253.56 307.81 249.09 308.72 248.67 311.25 254.11 305.63 256.24" style="fill:#263238"></polygon><path d="M202.83,138.07a31.15,31.15,0,0,0-2.32-3.12,32.08,32.08,0,0,0-2.6-2.86,31.36,31.36,0,0,0-6-4.7,22.68,22.68,0,0,0-7.07-2.78c-.63-.12-1.25-.28-1.88-.37L181,124.1a12.43,12.43,0,0,0-1.93,0l-1.94.07,0-.16a21.73,21.73,0,0,1,7.84-.2l1,.15,1,.27c.63.2,1.29.32,1.9.58l1.84.78c.6.28,1.16.63,1.74,1a26,26,0,0,1,6.08,5A27.25,27.25,0,0,1,202.83,138.07Z" style="fill:#263238"></path><polygon points="179.94 119.69 180.7 120.33 177.52 124.1 181.51 127 180.92 127.81 176.06 124.27 179.94 119.69" style="fill:#263238"></polygon></g><g id="freepik--Character--inject-306"><path d="M418.33,385.83s1,39.62,1,39.64c0,7.33-.18,13.75-.57,17.06v.05a5.23,5.23,0,0,1-.55,2.26l0,.05c-2.19,1.47-60.71,3-62.77,2.35s-.41-6.55,1.81-8.42,24.38-12.47,24.38-12.47l-.64-39.6Z" style="fill:#ad6359"></path><path d="M419.4,417.61s-.06,7.84-.06,7.86c0,7.33-.18,13.75-.57,17.06v.05a10.33,10.33,0,0,1-.55,2.26l0,.05c-2.19,1.47-60.71,3-62.77,2.35s-.41-6.55,1.81-8.42,24.38-12.47,24.38-12.47l0-8Z" style="fill:#fff"></path><path d="M378,426.37c3.89-.64,8.63.05,11.54,2.88.11.11-.05.27-.17.23A54.7,54.7,0,0,0,378,426.86.25.25,0,0,1,378,426.37Z" style="fill:#263238"></path><path d="M375.18,428c3.9-.64,8.63.05,11.54,2.88.11.11-.05.27-.17.23a54.7,54.7,0,0,0-11.37-2.62A.25.25,0,0,1,375.18,428Z" style="fill:#263238"></path><path d="M372.34,429.63c3.9-.65,8.63.05,11.54,2.88.11.11,0,.27-.17.23a54.46,54.46,0,0,0-11.36-2.62A.25.25,0,0,1,372.34,429.63Z" style="fill:#263238"></path><path d="M355.41,447.24c2.06.64,60.58-.88,62.77-2.35.84-.55,1.12-9.09,1.15-19.41v-.33l-37.76.56,0,.64s-22.14,10.6-24.38,12.47S353.35,446.62,355.41,447.24Z" style="fill:#37474f"></path><path d="M419.34,425.15v.33c0,10.32-.32,18.86-1.16,19.41-1,.67-13.68,1.35-27.38,1.84-16.4.58-34.27.86-35.39.52-2.06-.64-.4-6.56,1.81-8.43s24.38-12.47,24.38-12.47l0-.64,12.59-.19Z" style="fill:#FFC727"></path><path d="M356,445c9.85-.5,49.66-1.58,59.44-1.32.08,0,.08.05,0,.06-9.76.71-49.57,1.46-59.44,1.42C355.81,445.12,355.81,445,356,445Z" style="fill:#263238"></path><path d="M394.16,425.52c-.92,6.33-2.33,15.65-3.36,21.21-16.4.58-34.27.86-35.39.52-2.06-.64-.4-6.56,1.81-8.43s24.38-12.47,24.38-12.47l0-.64Z" style="opacity:0.1"></path><path d="M422.74,425.69l-42.35.4s-2.4-68.94-2.58-91.94c-.21-26.26,1.28-105,1.28-105h31.66s8.49,17.36,3.64,36.9l-1.34,70.28Z" style="fill:#37474f"></path><path d="M419.6,418.28a31.45,31.45,0,0,0-3.37-.27c-1.25-.09-2.5-.18-3.75-.24-2.41-.1-4.82-.14-7.23-.15-4.87,0-9.73,0-14.59.17-2.76.09-5.53.2-8.29.35a.09.09,0,0,0,0,.18c4.82.17,9.65.25,14.47.34s9.64.19,14.45.1c1.39,0,2.77,0,4.15-.12s2.79,0,4.14-.2C419.66,418.43,419.7,418.29,419.6,418.28Z" style="fill:#263238"></path><path d="M383.44,380.22c-.49-11.4-.85-22.81-1.17-34.22q-.93-34.22-.49-68.46c.16-12.8.5-25.6.88-38.4,0-.15-.21-.14-.22,0-1.21,22.92-1.68,45.87-1.7,68.82s.45,45.65,1.58,68.45c.63,12.79,1.41,25.59,2.61,38.35a.09.09,0,0,0,.18,0C384.59,403.24,383.94,391.73,383.44,380.22Z" style="fill:#263238"></path><path d="M373,392.13s-.32,38.29-.32,38.31c0,7.32-.17,13.74-.56,17.06a.11.11,0,0,1,0,.05,4.94,4.94,0,0,1-.55,2.26.1.1,0,0,1,0,.05c-2.18,1.47-60.7,3-62.76,2.35s-.42-6.55,1.81-8.42S335,431.31,335,431.31l.68-38.26Z" style="fill:#ad6359"></path><path d="M372.78,422.58s-.07,7.84-.07,7.86c0,7.32-.17,13.74-.56,17.06a.11.11,0,0,1,0,.05,9.9,9.9,0,0,1-.55,2.26.1.1,0,0,1,0,.05c-2.18,1.47-60.7,3-62.76,2.35s-.42-6.55,1.81-8.42S335,431.31,335,431.31l-.05-8Z" style="fill:#fff"></path><path d="M331.39,431.34c3.9-.65,8.63.05,11.54,2.88.11.11,0,.27-.17.23a54.46,54.46,0,0,0-11.36-2.62A.25.25,0,0,1,331.39,431.34Z" style="fill:#263238"></path><path d="M328.55,433c3.9-.65,8.63,0,11.54,2.88.12.11,0,.27-.17.22a55.08,55.08,0,0,0-11.36-2.61A.25.25,0,0,1,328.55,433Z" style="fill:#263238"></path><path d="M325.71,434.59c3.9-.64,8.64.06,11.54,2.89.12.11,0,.27-.17.22a55.1,55.1,0,0,0-11.36-2.62A.25.25,0,0,1,325.71,434.59Z" style="fill:#263238"></path><path d="M308.79,452.21c2.06.64,60.57-.88,62.76-2.36.84-.54,1.12-9.08,1.16-19.41,0-.11,0-.21,0-.32l-37.76.56,0,.64s-22.13,10.6-24.37,12.47S306.72,451.58,308.79,452.21Z" style="fill:#FFC727"></path><path d="M309.39,449.93c9.86-.5,49.66-1.58,59.45-1.33.07,0,.08.06,0,.07-9.76.7-49.58,1.46-59.45,1.42C309.19,450.09,309.18,449.94,309.39,449.93Z" style="fill:#263238"></path><path d="M392.38,269.64S375,324.39,374.69,334.46c-.26,8.58.83,96.61.83,96.61l-44,.27s3.71-89.78,4.4-98.73c1.28-16.71,15.93-62.61,26.4-103.5h47.41s-.41,21.41-10.15,36.9C399.61,266,395.2,268.05,392.38,269.64Z" style="fill:#37474f"></path><path d="M373.19,423c-5.08-.15-10.35-.3-15.43-.17s-10.09.2-15.13.5c-2.85.17-5.7.26-8.55.55a.08.08,0,0,0,0,.15c5.08.3,10.18.24,15.26.19s10.09-.1,15.13-.33c2.86-.13,5.7-.28,8.55-.47C373.33,423.36,373.5,423,373.19,423Z" style="fill:#263238"></path><path d="M363.57,254.91c-1.57,5.23-17,60.34-19.07,70.8s-4.71,78.85-4.52,89.81c0,1.37,0,2.73.1,4.09a.1.1,0,0,0,.2,0c.3-10.91,3.21-82.7,5.08-93.39,1.84-10.5,17.18-65.27,18.53-71.23A.17.17,0,0,0,363.57,254.91Z" style="fill:#263238"></path><path d="M381.5,270.7a38.59,38.59,0,0,0,6.53-.6,62.36,62.36,0,0,0,6.33-1.75,49.91,49.91,0,0,1,6.21-1,21.88,21.88,0,0,0,6.08-1.82.08.08,0,0,1,.07.14,37.21,37.21,0,0,1-5.83,2.53c-2.08.66-4.26.75-6.38,1.26A51.61,51.61,0,0,1,388,271a23.35,23.35,0,0,1-6.52-.11C381.4,270.83,381.42,270.7,381.5,270.7Z" style="fill:#263238"></path><path d="M378.73,314.25c.42-1.62.81-3.25,1.25-4.86.89-3.27,1.79-6.54,2.78-9.78,2-6.44,3.82-12.92,5.89-19.33,1.18-3.63,2.24-7.31,3.62-10.87a.07.07,0,0,1,.14,0c-.7,3.32-1.68,6.57-2.56,9.85s-1.82,6.53-2.77,9.78c-1.87,6.47-3.71,12.95-5.75,19.37-.58,1.8-1.17,3.59-1.79,5.37s-1.13,3.71-1.89,5.48a.08.08,0,0,1-.16-.05C377.78,317.56,378.3,315.91,378.73,314.25Z" style="fill:#263238"></path><path d="M380.2,177.75C370,193.15,351,211,346.33,207.83c-11.86-8-21.55-32.65-23.65-38.19-1.23-3.23,20.28-16.91,22-13.67,2.06,3.78,6.43,24.21,8,24.79,1.21.43,17.75-9.25,21.82-11C384.59,165.4,384.53,171.23,380.2,177.75Z" style="fill:#ad6359"></path><path d="M366,199.77l-14-20.09s14.24-9.45,24.09-12.48,10.42,3.16,5.2,11.73S366,199.77,366,199.77Z" style="fill:#FFC727"></path><path d="M362,186.82a10.67,10.67,0,0,0-2.77,1.46,10.76,10.76,0,0,0,3.05-.7,11.06,11.06,0,0,0,2.78-1.46A10.75,10.75,0,0,0,362,186.82Zm8.75-13.19a11.06,11.06,0,0,0-1.46-2.78,12.07,12.07,0,0,0,2.16,5.84A10.75,10.75,0,0,0,370.73,173.63Zm12.43-4.07a9.1,9.1,0,0,0,1.41,1,5.29,5.29,0,0,0,0-.69A9,9,0,0,0,383.16,169.56Z" style="fill:#fff"></path><path d="M356.36,178.19a154.61,154.61,0,0,1,11.72,17.17s-.11.14-.14.1c-3.47-4.49-9.7-13.94-11.77-17.12C356.13,178.28,356.32,178.14,356.36,178.19Z" style="fill:#263238"></path><path d="M381.32,178.93C376.09,187.5,366,199.77,366,199.77l-10.07-14.48,24.82-18.86C386,166.61,385.54,172,381.32,178.93Z" style="fill:#263238"></path><path d="M350,152.83c-3.89-1.15-9.06-4.76-12.08-4.65a3.45,3.45,0,0,0-3.3,2.46s-1.94-2.71-4.66-2.16c-1.39.28-2.17,2.77-2.17,2.77a4.13,4.13,0,0,0-4-1.47c-1.9.51-2.39,2.92-2.39,2.92s-2.53-1.29-4.3-.15c-3.58,2.31-.95,19,5.6,20.61,3.06.75,2.19-3.29,2.19-3.29s2.65,5.51,6.1,5,2-5.64,2-5.64,2.61,5.32,6.14,4.49c3.68-.87,1.35-5.81,1.35-5.81s3.1,3.32,5.66,2.06c4.23-2.08-2.47-8.22-2.18-12l5.73-3Z" style="fill:#ad6359"></path><path d="M344.23,150.31c3.78.77,7.49-4.35,11.2-4.14,5,.29,1.13,6.51-5.74,8.85l-5.65.87Z" style="fill:#ad6359"></path><path d="M321.24,153.07a0,0,0,1,0-.08,0,29.2,29.2,0,0,0,3.73,17c.1.16.41.08.33-.12A60.27,60.27,0,0,1,321.24,153.07Z" style="fill:#263238"></path><path d="M327.75,151.17c0-.06-.11-.06-.12,0a27.46,27.46,0,0,0,5.24,18.32c.14.19.45.21.3,0C330.71,165.78,328.14,156.62,327.75,151.17Z" style="fill:#263238"></path><path d="M340.9,168.25c-3.74-5.2-5.43-11.08-6.3-17.37,0-.08-.13,0-.14,0-.41,3.19.56,7.14,1.58,10.15a16.93,16.93,0,0,0,4.68,7.33C340.81,168.46,341,168.37,340.9,168.25Z" style="fill:#263238"></path><path d="M373.53,176.07c3.18.42,8.66-5.34,10.37-9.4a63.28,63.28,0,0,0-1.25-6.38c-.41-2-.81-4.33-1-6.44l-12.91,4.58a34.09,34.09,0,0,1,2.11,8,6.46,6.46,0,0,1,0,.88s0,.09,0,.14C370.71,169.1,370.45,175.67,373.53,176.07Z" style="fill:#ad6359"></path><path d="M370.82,167.28s0,.09,0,.15a9.38,9.38,0,0,0,1.37-.07c7.77-1.11,8.91-10.05,9.06-13.37l-12.54,4.44a33.87,33.87,0,0,1,2.12,8A6.46,6.46,0,0,1,370.82,167.28Z" style="fill:#263238"></path><path d="M383.52,138.28c1.62,4.67-.38,18.39-3.62,21.55-4.7,4.58-12.65,5.3-16.61-.41-3.84-5.54-.92-23.38,2.72-26.27C371.39,128.88,381.14,131.39,383.52,138.28Z" style="fill:#ad6359"></path><path d="M370,147s.06,0,.06.09c-.15.92-.16,2,.64,2.41a0,0,0,0,1,0,.06C369.7,149.3,369.73,147.87,370,147Z" style="fill:#263238"></path><path d="M371,146.15c1.5.08,1.24,3.08-.15,3S369.71,146.09,371,146.15Z" style="fill:#263238"></path><path d="M364.79,146.55s-.07,0-.08.07c0,.93-.26,2-1.13,2.23,0,0,0,.05,0,.05C364.62,148.85,364.89,147.44,364.79,146.55Z" style="fill:#263238"></path><path d="M364.05,145.5c-1.49-.24-1.87,2.75-.49,3S365.29,145.71,364.05,145.5Z" style="fill:#263238"></path><path d="M372.27,144.88c-.4-.14-.74-.33-1.13-.51a2,2,0,0,1-1.05-.74.65.65,0,0,1,.17-.76,1.58,1.58,0,0,1,1.6,0,2.31,2.31,0,0,1,1.25,1.11A.68.68,0,0,1,372.27,144.88Z" style="fill:#263238"></path><path d="M363,143.89a10.38,10.38,0,0,0,1.22-.21,2,2,0,0,0,1.2-.44.63.63,0,0,0,0-.78,1.6,1.6,0,0,0-1.54-.44,2.33,2.33,0,0,0-1.49.77A.68.68,0,0,0,363,143.89Z" style="fill:#263238"></path><path d="M370.26,155.56c-.24.19-.49.47-.83.47a2.51,2.51,0,0,1-1-.32,0,0,0,0,0,0,0,1.25,1.25,0,0,0,1.14.6,1,1,0,0,0,.8-.75C370.37,155.55,370.3,155.53,370.26,155.56Z" style="fill:#263238"></path><path d="M369.53,152.69a3.19,3.19,0,0,1-2.24,1.22,4,4,0,0,1-1.14,0l-.22,0-.2,0a.23.23,0,0,1-.17-.22h0s0-.06,0-.1h0v-.08c0-.72.21-1.81.21-1.81-.28.11-1.66.6-1.61.22a48.64,48.64,0,0,1,2.06-9.48.09.09,0,0,1,.17,0c-.32,3-1.16,5.88-1.53,8.87a5.73,5.73,0,0,1,1.54-.32c.1,0-.36,2.09-.35,2.41v0a4.44,4.44,0,0,0,3.37-.74C369.52,152.55,369.59,152.62,369.53,152.69Z" style="fill:#263238"></path><path d="M366.6,153.54a3.74,3.74,0,0,0,1.4,1.29,1.71,1.71,0,0,0,1,.16c.76-.13.83-.81.75-1.41a4,4,0,0,0-.26-.92A4.89,4.89,0,0,1,366.6,153.54Z" style="fill:#263238"></path><path d="M368,154.83a1.71,1.71,0,0,0,1,.16c.76-.13.83-.81.75-1.41A1.76,1.76,0,0,0,368,154.83Z" style="fill:#ff97b8"></path><path d="M380.67,134.09c-.18,1.85-.61,7.55.09,8.84s2.16,4.24,3,4.8c.44-3.79.41-7.45-.28-9.45A9.74,9.74,0,0,0,380.67,134.09Z" style="fill:#263238;opacity:0.2"></path><path d="M368.91,137.66a4.57,4.57,0,0,0,4,2,4.64,4.64,0,0,0,3.88-2.36s.08,0,.06,0A4.61,4.61,0,0,1,372.9,140a4.7,4.7,0,0,1-4.08-2.31C368.78,137.66,368.87,137.6,368.91,137.66Z" style="fill:#263238"></path><path d="M374.87,127a7.19,7.19,0,0,1,5.62,4,5.14,5.14,0,0,1,.12,3.37s-.11,0-.1,0a5.6,5.6,0,0,0-2.06-5.34,7.22,7.22,0,0,0-6.27-1.49,4.56,4.56,0,0,0-2.67,1.69c-.06.08-.25,0-.2-.09C370.21,127.55,372.5,126.69,374.87,127Z" style="fill:#263238"></path><path d="M359,131a5.83,5.83,0,0,1,2.82-2.83c1.73-.81,3.53-.46,5.32-.07.05,0,0,.08,0,.07a8.11,8.11,0,0,0-4.58,0,5.67,5.67,0,0,0-2.94,2.47,5.58,5.58,0,0,0,1.51,7.15,5.69,5.69,0,0,0,4.4,1s.09.08,0,.09a5.76,5.76,0,0,1-6.69-3.66A5.85,5.85,0,0,1,359,131Z" style="fill:#263238"></path><path d="M384.21,141.05s3-4.43,1.21-7.38c-1-1.67-4.95-1.89-4.95-1.89a7.13,7.13,0,0,0-4.19-3.49c-3.2-1.11-7.31.39-7.31.39s-2.92-2.13-6-.78c-4.33,1.89-4.49,8.14-.61,10.58,2.73,1.71,6.91-.41,6.91-.41.37.09,4,2.83,7.24-.28,0,0,2.14,2.35,4.42,1.11A3.45,3.45,0,0,0,384.21,141.05Z" style="fill:#263238"></path><path d="M381,149.5s3-4.46,5-3.4-.2,7.5-2.53,8.41a2.38,2.38,0,0,1-3.22-1.23Z" style="fill:#ad6359"></path><path d="M385.37,147.93a0,0,0,0,1,0,.06,6,6,0,0,0-3.06,3.83,1.33,1.33,0,0,1,2-.39s0,.1,0,.09a1.47,1.47,0,0,0-1.61.54,7.19,7.19,0,0,0-.76,1.32c-.07.15-.34.07-.28-.1v0C381.53,151.14,383.12,148.18,385.37,147.93Z" style="fill:#263238"></path><path d="M418.07,240c-.13.17-61,5.67-61.62,5.1-.85-.82,2.78-61.72,13.65-74.17,2.67-3.06,12.12-6.74,15.23-4.83,8.07,5,13.05,16.2,16.24,22.74,2.37,4.84,5.41,13.17,8.23,21.73C414.45,224.66,418.52,239.37,418.07,240Z" style="fill:#FFC727"></path><path d="M379.69,186.65a10.79,10.79,0,0,0-.92,3,11.59,11.59,0,0,0,1.66-2.66,11.17,11.17,0,0,0,.92-3A11.53,11.53,0,0,0,379.69,186.65Zm-10.25,39.9a11.13,11.13,0,0,0-.92,3,10.81,10.81,0,0,0,1.66-2.67,11.08,11.08,0,0,0,.93-3A11.1,11.1,0,0,0,369.44,226.55Zm25.29-1.91a10.75,10.75,0,0,0-.94,3,10.33,10.33,0,0,0,1.67-2.66,11,11,0,0,0,.93-3A11.06,11.06,0,0,0,394.73,224.64Zm16.33,8.25a11.15,11.15,0,0,0-3-.93,12.14,12.14,0,0,0,5.65,2.6A11,11,0,0,0,411.06,232.89Zm-41.24-31.55a11.08,11.08,0,0,0-3-.93,10.9,10.9,0,0,0,2.66,1.67,11.17,11.17,0,0,0,3,.92A10.75,10.75,0,0,0,369.82,201.34Zm16.33-30.85a10.86,10.86,0,0,0-3-.93,11,11,0,0,0,2.67,1.67,11.17,11.17,0,0,0,3,.92A10.92,10.92,0,0,0,386.15,170.49Zm-15.42,3.14a11.93,11.93,0,0,0-1.06-2.19l-.28.38a13.28,13.28,0,0,0,.58,2.1,11.16,11.16,0,0,0,1.46,2.77A10.75,10.75,0,0,0,370.73,173.63Zm24.27,25a11.32,11.32,0,0,0-1.46-2.77,11,11,0,0,0,.7,3.05,11.22,11.22,0,0,0,1.46,2.78A11.1,11.1,0,0,0,395,198.65Zm3.76,42a7.92,7.92,0,0,0,.16,1.19l.57-.05A8.14,8.14,0,0,0,398.76,240.62Zm-37.59.44a11.22,11.22,0,0,0-1.46-2.78,10.75,10.75,0,0,0,.7,3.06,11.16,11.16,0,0,0,1.46,2.77A11.11,11.11,0,0,0,361.17,241.06Zm49.05-29.2-.76.26a10.86,10.86,0,0,0-2.78,1.45,11.1,11.1,0,0,0,3.06-.7q.36-.13.72-.3Zm-28.48,25.6a11.12,11.12,0,0,0-2.77,1.45,12.08,12.08,0,0,0,5.83-2.16A10.84,10.84,0,0,0,381.74,237.46Zm2-24a10.67,10.67,0,0,0-2.77,1.46,10.76,10.76,0,0,0,3.05-.7,11.06,11.06,0,0,0,2.78-1.46A10.75,10.75,0,0,0,383.77,213.47Zm-20.18-27.14c-.06.26-.13.51-.19.77a8.89,8.89,0,0,0,1.64-1A8.59,8.59,0,0,0,363.59,186.33Zm33.83-5.78a9.86,9.86,0,0,0-2.33,1.28,9.85,9.85,0,0,0,2.71-.58Z" style="fill:#fff"></path><path d="M379.86,181.37c-2.47,15.85-8.25,39.73-16,45.24-3.94,2.8-28.78,2.9-36.68,2.08-3.36-.35.12-25.11,3.72-24.86,4,.27,18.43.63,21.1.27,1.53-.2,9-15.76,16.25-27.76C376.82,162.25,381.87,168.5,379.86,181.37Z" style="fill:#ad6359"></path><path d="M332.74,204.33s-8.87-4.13-14.8-6.55c-3.31-1.36-9.19-3.17-12.07-3.05-4.32.17-22.26,3.66-21.51,8,.68,4,15.72-1,15.72-1s-15.61,3.66-13.92,8.27,17.94-3.25,17.94-3.25-16,4.12-13.46,8.6c1.89,3.38,17-2.91,17-2.91s-13.69,3.64-11.89,7.2c2,3.94,16.29-1,16.29-1,6.08,8.29,12.37,9.75,17,10.25C330.12,229.05,332.74,204.33,332.74,204.33Z" style="fill:#ad6359"></path><path d="M305.39,200.15c-1.85.36-3.72.71-5.53,1.24s-3.6,1.12-5.36,1.81a31.52,31.52,0,0,0-6.56,3.35c3.82-2.15,10.27-4.14,12.08-4.67s3.59-1.14,5.4-1.67C305.46,200.2,305.44,200.14,305.39,200.15Z" style="fill:#263238"></path><path d="M307.41,206.65c-2.34.56-4.68,1-7,1.71s-5.5,1.71-7.76,2.54c-.17.06-.15.33,0,.28,2.29-.73,5.6-1.65,7.89-2.36s4.56-1.5,6.87-2.12C307.47,206.69,307.45,206.64,307.41,206.65Z" style="fill:#263238"></path><path d="M310.15,211.92a53.62,53.62,0,0,0-10.51,3.44c-.16.07,0,.15.14.08,3.47-1.2,6.19-2.18,10.4-3.4C310.24,212,310.23,211.9,310.15,211.92Z" style="fill:#263238"></path><path d="M342.09,204.2c1.74-.12,3.48-.17,5.22-.22l2.6-.09,1.29-.06c.2,0,.43,0,.6-.06l.14,0s0,0,.05-.05.1-.07.17-.15a15.35,15.35,0,0,0,1.5-2c.48-.71.93-1.46,1.4-2.18.93-1.47,1.83-3,2.79-4.42-.68,1.61-1.46,3.17-2.29,4.71a23.78,23.78,0,0,1-2.88,4.45,1.24,1.24,0,0,1-.75.41,5.76,5.76,0,0,1-.69.07c-.44,0-.88,0-1.32,0-.87,0-1.74,0-2.61,0C345.57,204.49,343.83,204.39,342.09,204.2Z" style="fill:#263238"></path><path d="M378.33,204.33l-22.24-10.21s7.47-15.38,14.41-23,10.58-2.57,10.44,7.46S378.33,204.33,378.33,204.33Z" style="fill:#FFC727"></path><path d="M362,186.82a10.67,10.67,0,0,0-2.77,1.46,10.76,10.76,0,0,0,3.05-.7,11.06,11.06,0,0,0,2.78-1.46A10.75,10.75,0,0,0,362,186.82Zm8.75-13.19a14.68,14.68,0,0,0-.83-1.81c-.14.15-.27.31-.41.47a12.74,12.74,0,0,0,.48,1.63,11.16,11.16,0,0,0,1.46,2.77A10.75,10.75,0,0,0,370.73,173.63Zm9,13a10.79,10.79,0,0,0-.92,3,11.59,11.59,0,0,0,1.66-2.66l0-.08h0c.06-.65.11-1.3.16-1.94A14,14,0,0,0,379.69,186.65Z" style="fill:#fff"></path><path d="M359.07,190.64a154.49,154.49,0,0,1,18.82,8.83s0,.17-.07.16c-5.27-2.1-15.45-7.08-18.84-8.77C358.91,190.83,359,190.61,359.07,190.64Z" style="fill:#263238"></path><path d="M375.54,203.05c1,.32,1.93.7,2.89,1l-.34.19c.36-3.55.78-7.08,1.23-10.61l.69-5.29q.35-2.64.75-5.3.11,2.68,0,5.37c-.1,1.78-.23,3.56-.44,5.34a97,97,0,0,1-1.72,10.57l-.07.33-.27-.15C377.33,204.05,376.42,203.58,375.54,203.05Z" style="fill:#263238"></path><path d="M380.06,191.52a12.9,12.9,0,0,1,.61-2.63,12.68,12.68,0,0,1,1.08-2.49,13.52,13.52,0,0,1-.61,2.64A12.94,12.94,0,0,1,380.06,191.52Z" style="fill:#263238"></path><path d="M367.84,194.88l-.23,0-.21-.05-4.19-1-.25-.05-2.39-.56-.28-.06-3.79-.88-.31-.08-2.32-.54-.34-.07h0l-4.37-1-.37-.09-2.62-.61-.41-.09L342.5,189l-.44-.1-2.87-.67-.46-.1-4-.92-.41-.1-3-.7-.4-.09-2.89-.67-.34-.08-3.3-.77-.33-.08-2.86-.66L321,184l-4-.93-.29-.07-4.23-1-.23-.06-3.25-.75-.21-.05-4.2-1-.18,0-3.54-.82-.16,0-3.71-.86,3.29-1.46.14-.06,3.79-1.69.17-.07,3.25-1.45.19-.08,4.15-1.84.23-.11,2.78-1.23.25-.11,6.11-2.72.3-.13,1.53-.68.32-.14,6-2.65.37-.16h0l1.31-.58.39-.17,6.13-2.72h0l.47-.2,1.37-.61.45-.2,6.44-2.86.47-.21.75-.33.44-.2,7.1-3.15.41-.18h0l.65-.28.38-.17,7.06-3.14.25.6h0l.21.5h0l.06.15h0c.09.2.17.4.25.6a77,77,0,0,1,4.39,15.62h0c0,.21.07.42.11.64h0a68,68,0,0,1,.77,7.39c0,.48.05.95.06,1.43v0A78.29,78.29,0,0,1,367.84,194.88Z" style="fill:#c7c7c7"></path><path d="M300.35,176.88l.44,2.42-.16,0-.42-2.32Zm3.79-1.69.19,4.93.18,0-.2-5Zm3.61-1.6-.19.08,1.15,7.47.21.05Zm4.15-1.84.27,10.19.23.06-.27-10.36Zm3.26-1.45-.25.11L316.63,183l.29.07Zm5.95,5.58L321,184l.28.07.17-8.16.17-8.44-.3.13Zm2.31-9.25-.32.14,1,17.94.33.08Zm4.3,18.93.34.08,1.69-21.82-.37.16Zm3.34-22.33L331,186.31l.4.09.1-23.34Zm6.52-2.89-3.22,26.76.41.1,3.28-27.07-.47.2Zm1.84-.82-.69,28.6.46.1.68-28.9Zm6.89-3.06-4.25,32.43.44.1,4.28-32.74Zm1.22-.54-1.77,33.83.41.09,1.8-34.12Zm7.54-3.35-6.28,37.88.37.09,6.32-38.15Zm1.06-.47-2.6,39.45h0l.34.07,2.64-39.7Zm7.9-2.2-.21-.5-7.63,42.77.31.08L364,149.91Zm.06.17-3.8,43.06.28.06,3.77-42.52C364.26,150.47,364.18,150.27,364.09,150.07Zm4.75,16.87c0-.22-.07-.43-.11-.64L363,193.75l.25.05L368.84,167Zm.77,7.4-2.21,20.44.21.05,2.06-19v0C369.66,175.29,369.64,174.82,369.61,174.34Z" style="fill:#dbdbdb"></path><polygon points="367.84 194.88 361.98 194.88 291.06 178.4 296.92 178.4 367.84 194.88" style="fill:#a6a6a6"></polygon><polygon points="296.92 178.4 291.06 178.4 357.71 148.79 363.57 148.79 296.92 178.4" style="fill:#a6a6a6"></polygon></g><g id="freepik--Plant--inject-306"><path d="M89,338.57a222.48,222.48,0,0,0-.33-23.67,301.08,301.08,0,0,0-7.41-48.23C79.22,257.74,76.68,249,74,240.2c-.08-.26-.5-.19-.43.09,8.21,30.9,14.94,62.78,14.48,94.9-.13,9-1.17,17.82-2,26.75,0,.24.37.33.43.09A135,135,0,0,0,89,338.57Z" style="fill:#FFC727"></path><path d="M73.59,240.29s-12.43,31.55-9.64,39,8.52,9,8.52,9-7.61,10.86-2.29,21.05,17.12,9.7,17.9,21.25C88.08,330.55,88.74,282.26,73.59,240.29Z" style="fill:#FFC727"></path><path d="M86.73,310.61a.25.25,0,0,0,0-.17A289.1,289.1,0,0,0,74.66,247a.05.05,0,0,0-.1,0q3.69,13.85,6.53,27.83a13.78,13.78,0,0,0-5.94-3.3s-.06,0,0,.06a15.79,15.79,0,0,1,6.13,4.09c.36,1.83.72,3.66,1,5.49-2.77-3.1-6.63-4.64-10.48-6.11a0,0,0,0,0,0,.09c4,1.63,8,3.74,10.73,7.2Q84,290.19,85,298.11a15.05,15.05,0,0,0-7.41-4.25c-.09,0-.14.11-.05.13a15.73,15.73,0,0,1,7.52,4.82s0,0,0,0c.25,1.86.49,3.71.71,5.57a19.26,19.26,0,0,0-5.2-3.13s-.08.06,0,.08a18,18,0,0,1,5.21,3.44l.06,0c.21,1.77.42,3.53.59,5.3a25.19,25.19,0,0,0-10.54-7.52c-.08,0-.12.09,0,.12a27.64,27.64,0,0,1,10.39,8,.23.23,0,0,0,.26.08q.4,4.06.71,8.16a0,0,0,0,0,.06,0C87.15,316.18,87,313.4,86.73,310.61Z" style="fill:#263238"></path><path d="M76.74,268.39a15.58,15.58,0,0,0-7.46-2.33.05.05,0,0,0,0,.1,29,29,0,0,1,7.38,2.41A.1.1,0,0,0,76.74,268.39Z" style="fill:#263238"></path><path d="M78.25,301.79a15.64,15.64,0,0,0-5.6-1.91.05.05,0,1,0,0,.1,21,21,0,0,1,5.54,1.95C78.26,302,78.33,301.84,78.25,301.79Z" style="fill:#263238"></path><path d="M121.71,279.77a84.55,84.55,0,0,0-14.39,12.58,51.68,51.68,0,0,0-10.09,17.11,128.14,128.14,0,0,0-7.52,40.92,99.49,99.49,0,0,0,2.22,23,.22.22,0,0,0,.43-.08,129.24,129.24,0,0,1,.22-40.23c2.14-13,5.49-27.25,13.79-37.86,4.52-5.78,10.15-10.32,15.72-15C122.38,280,122,279.56,121.71,279.77Z" style="fill:#FFC727"></path><path d="M91.54,341A77.44,77.44,0,0,1,102,327.58c6.22-6.22,11.46-10.63,12.26-14.75s-6.23-7.14-6.23-7.14,8.61,1.55,11-2.06,3.5-24.53,3.5-24.53-15.66,11.18-23,26.84S91.54,341,91.54,341Z" style="fill:#FFC727"></path><path d="M117.1,284.46c-6.59,6.47-13.22,13.37-17.1,21.86a83,83,0,0,0-3.45,9h0c-.2.62-.4,1.24-.59,1.86a.19.19,0,0,0,0,.1,178.67,178.67,0,0,0-4.45,19.33s.06.06.07,0c.67-3.27,1.41-6.56,2.25-9.85h.09A13.9,13.9,0,0,1,98,325.75c.09,0,.08-.17,0-.16a15.22,15.22,0,0,0-4.07.74c.76-3,1.59-5.92,2.51-8.83a44.14,44.14,0,0,1,9.29-1.22s0,0,0,0a35.44,35.44,0,0,0-9.13.78c.16-.5.33-1,.5-1.5a47.73,47.73,0,0,1,6.18-1s0-.07,0-.07a30,30,0,0,0-6.05.74c.85-2.52,1.77-5,2.79-7.43a45.67,45.67,0,0,1,3-5.74,37.16,37.16,0,0,1,5-.89,0,0,0,0,0,0-.08,13.19,13.19,0,0,0-4.68.46q1.23-2,2.61-3.9h0c3.51-.77,7.07-1.5,10.66-.82a.06.06,0,0,0,0-.11c-3.41-.9-6.81-.38-10.21.29.37-.49.75-1,1.14-1.46a23.05,23.05,0,0,1,6.56-1s0-.07,0-.08a17.24,17.24,0,0,0-6.11.55c2.9-3.61,6.1-7,9.27-10.35C117.37,284.4,117.26,284.31,117.1,284.46Z" style="fill:#263238"></path><path d="M116.92,298.72a14.07,14.07,0,0,0-3.11-.11c-.12,0-.11.22,0,.22,1,0,2.06,0,3.09,0A.06.06,0,1,0,116.92,298.72Z" style="fill:#263238"></path><path d="M105.66,319a14,14,0,0,0-4.83,1s0,.08,0,.07c1.6-.38,3.21-.54,4.82-.8C105.8,319.23,105.79,319,105.66,319Z" style="fill:#263238"></path><path d="M102.28,312a10.09,10.09,0,0,0-2,.19.06.06,0,0,0,0,.12,10.07,10.07,0,0,0,2.05-.1A.11.11,0,0,0,102.28,312Z" style="fill:#263238"></path><path d="M45.65,302a70.84,70.84,0,0,1,14.55,6.85,43.47,43.47,0,0,1,12.12,11.52,107.61,107.61,0,0,1,15.54,31.38,83.57,83.57,0,0,1,3.53,19.14.19.19,0,0,1-.37,0,108.55,108.55,0,0,0-9.48-32.5C76.8,328.32,70.8,317.6,61.63,310.93c-5-3.63-10.6-6-16.19-8.52C45.15,302.28,45.36,301.87,45.65,302Z" style="fill:#FFC727"></path><path d="M84.21,344.54a65.6,65.6,0,0,0-11.58-8.43c-6.47-3.59-11.73-6-13.34-9.1s3.39-7.22,3.39-7.22-6.6,3.24-9.34.87-8.5-19.05-8.5-19.05S60.09,307,69.62,318,84.21,344.54,84.21,344.54Z" style="fill:#FFC727"></path><path d="M83.42,341.1c-7.63-14.32-17.81-27.27-31.76-35.82,0,0,0,0,0,0a68.91,68.91,0,0,1,10.21,8,16.17,16.17,0,0,0-8.2,1.73,0,0,0,0,0,0,.08,22.54,22.54,0,0,1,8.44-1.42.18.18,0,0,0,.1,0l1.46,1.43a25.89,25.89,0,0,0-4.38.58s0,.07,0,.06a22.5,22.5,0,0,1,4.63-.38,94.92,94.92,0,0,1,7.2,8.17,7.23,7.23,0,0,0-3.07.22c-.07,0,0,.12,0,.12a15.55,15.55,0,0,1,3.27-.05c.41.53.84,1.06,1.25,1.6a29.5,29.5,0,0,0-9.26.9c-.05,0,0,.08,0,.07a37.49,37.49,0,0,1,9.51-.62c.39.52.76,1,1.14,1.57a20.11,20.11,0,0,0-5.51.63c-.07,0,0,.13,0,.11a21,21,0,0,1,5.7-.44c1.64,2.26,3.22,4.57,4.73,6.91a5.09,5.09,0,0,0-2.42.14s0,.08,0,.07a10.92,10.92,0,0,1,2.62.12c1.36,2.12,2.67,4.26,3.93,6.4C83.23,341.42,83.52,341.29,83.42,341.1Z" style="fill:#263238"></path><path d="M71.55,329.22a11.87,11.87,0,0,0-4.43.54s0,.08,0,.07a34.32,34.32,0,0,1,4.41-.45A.08.08,0,0,0,71.55,329.22Z" style="fill:#263238"></path><path d="M58.25,311.77a7.83,7.83,0,0,0-2,.12c-.08,0-.05.13,0,.12.67-.07,1.33,0,2-.06A.09.09,0,0,0,58.25,311.77Z" style="fill:#263238"></path><polygon points="103.88 391.89 69.45 391.89 74.36 355.93 75.62 346.71 97.72 346.71 98.97 355.93 103.88 391.89" style="fill:#455a64"></polygon><polygon points="98.97 355.93 74.36 355.93 75.62 346.71 97.72 346.71 98.97 355.93" style="fill:#263238"></polygon><rect x="72.46" y="343.51" width="28.42" height="7.81" style="fill:#455a64"></rect></g></svg>